<svg xmlns="http://www.w3.org/2000/svg" version="1.1" xmlns:xlink="http://www.w3.org/1999/xlink" xmlns:svgjs="http://svgjs.dev/svgjs" width="1000" height="1000"><g clip-path="url(#SvgjsClipPath1237)"><rect width="1000" height="1000" fill="#ffffff"></rect><g transform="matrix(62.5,0,0,62.5,0,0)"><svg xmlns="http://www.w3.org/2000/svg" version="1.1" xmlns:xlink="http://www.w3.org/1999/xlink" xmlns:svgjs="http://svgjs.dev/svgjs" width="16px" height="16px"><svg width="16px" height="16px" viewBox="0 0 16 16" version="1.1" xmlns="http://www.w3.org/2000/svg" xmlns:xlink="http://www.w3.org/1999/xlink">
    <title>Pattern</title>
    <defs>
        <rect id="path-1" x="0" y="0" width="16" height="16"></rect>
    <clipPath id="SvgjsClipPath1237"><rect width="1000" height="1000" x="0" y="0" rx="100" ry="100"></rect></clipPath></defs>
    <g id="Page-1" stroke="none" stroke-width="1" fill="none" fill-rule="evenodd">
        <g id="Pattern">
            <rect id="Rectangle" fill="#8697B7" x="8" y="0" width="8" height="8"></rect>
            <rect id="Rectangle-Copy" fill="#F6CD99" x="0" y="8" width="8" height="8"></rect>
            <rect id="Rectangle-Copy-2" fill="#C86490" x="8" y="8" width="8" height="8"></rect>
            <rect id="Rectangle" fill="#5E5A98" x="0" y="0" width="8" height="8"></rect>
            <mask id="mask-2" fill="white">
                <use xlink:href="#path-1"></use>
            </mask>
            <g id="Rectangle"></g>
            <g id="Middle" mask="url(#mask-2)" stroke="#34212A">
                <g transform="translate(-17, -0.9372)" id="Rectangle">
                    <path d="M30.9225297,2.96635916 L30.790918,14.6798068 L19.0774703,14.8114186 L19.209082,3.09797093 L30.9225297,2.96635916 Z" transform="translate(25, 8.8889) rotate(45) translate(-25, -8.8889)"></path>
                    <path d="M28.0655326,5.82335626 L27.9974097,11.8862986 L21.9344674,11.9544215 L22.0025903,5.8914792 L28.0655326,5.82335626 Z" transform="translate(25, 8.8889) rotate(45) translate(-25, -8.8889)"></path>
                    <path d="M25.5656602,8.32322872 L25.5530899,9.44197884 L24.4343398,9.45454906 L24.4469101,8.33579894 L25.5656602,8.32322872 Z" transform="translate(25, 8.8889) rotate(45) translate(-25, -8.8889)"></path>
                </g>
            </g>
            <g id="Top-Right" mask="url(#mask-2)" stroke="#34212A">
                <g transform="translate(-26, -8.7594)" id="Rectangle">
                    <path d="M30.9225297,2.96635916 L30.790918,14.6798068 L19.0774703,14.8114186 L19.209082,3.09797093 L30.9225297,2.96635916 Z" transform="translate(25, 8.8889) rotate(45) translate(-25, -8.8889)"></path>
                    <path d="M28.0655326,5.82335626 L27.9974097,11.8862986 L21.9344674,11.9544215 L22.0025903,5.8914792 L28.0655326,5.82335626 Z" transform="translate(25, 8.8889) rotate(45) translate(-25, -8.8889)"></path>
                    <path d="M25.5656602,8.32322872 L25.5530899,9.44197884 L24.4343398,9.45454906 L24.4469101,8.33579894 L25.5656602,8.32322872 Z" transform="translate(25, 8.8889) rotate(45) translate(-25, -8.8889)"></path>
                </g>
            </g>
            <g id="Bottom-Left" mask="url(#mask-2)" stroke="#34212A">
                <g transform="translate(-26, 6.8851)" id="Rectangle">
                    <path d="M30.9225297,2.96635916 L30.790918,14.6798068 L19.0774703,14.8114186 L19.209082,3.09797093 L30.9225297,2.96635916 Z" transform="translate(25, 8.8889) rotate(45) translate(-25, -8.8889)"></path>
                    <path d="M28.0655326,5.82335626 L27.9974097,11.8862986 L21.9344674,11.9544215 L22.0025903,5.8914792 L28.0655326,5.82335626 Z" transform="translate(25, 8.8889) rotate(45) translate(-25, -8.8889)"></path>
                    <path d="M25.5656602,8.32322872 L25.5530899,9.44197884 L24.4343398,9.45454906 L24.4469101,8.33579894 L25.5656602,8.32322872 Z" transform="translate(25, 8.8889) rotate(45) translate(-25, -8.8889)"></path>
                </g>
            </g>
            <g id="Bottom-Right" mask="url(#mask-2)" stroke="#34212A">
                <g transform="translate(7.9091, 6.683)" id="Rectangle">
                    <path d="M15.0134388,3.16837936 L14.881827,14.881827 L3.16837936,15.0134388 L3.29999113,3.29999113 L15.0134388,3.16837936 Z" transform="translate(9.0909, 9.0909) rotate(45) translate(-9.0909, -9.0909)"></path>
                    <path d="M11.1564417,6.02537646 L11.0883188,12.0883188 L5.02537646,12.1564417 L5.09349941,6.09349941 L11.1564417,6.02537646 Z" transform="translate(8.0909, 9.0909) rotate(45) translate(-8.0909, -9.0909)"></path>
                    <path d="M8.65656926,8.52524892 L8.64399904,9.64399904 L7.52524892,9.65656926 L7.53781914,8.53781914 L8.65656926,8.52524892 Z" transform="translate(8.0909, 9.0909) rotate(45) translate(-8.0909, -9.0909)"></path>
                </g>
            </g>
            <g id="Top-Right" mask="url(#mask-2)" stroke="#34212A">
                <g transform="translate(7.9091, -8.9614)" id="Rectangle">
                    <path d="M15.0134388,3.16837936 L14.881827,14.881827 L3.16837936,15.0134388 L3.29999113,3.29999113 L15.0134388,3.16837936 Z" transform="translate(9.0909, 9.0909) rotate(45) translate(-9.0909, -9.0909)"></path>
                    <path d="M11.1564417,6.02537646 L11.0883188,12.0883188 L5.02537646,12.1564417 L5.09349941,6.09349941 L11.1564417,6.02537646 Z" transform="translate(8.0909, 9.0909) rotate(45) translate(-8.0909, -9.0909)"></path>
                    <path d="M8.65656926,8.52524892 L8.64399904,9.64399904 L7.52524892,9.65656926 L7.53781914,8.53781914 L8.65656926,8.52524892 Z" transform="translate(8.0909, 9.0909) rotate(45) translate(-8.0909, -9.0909)"></path>
                </g>
            </g>
        </g>
    </g>
</svg></svg></g></g></svg>